<?xml version="1.0" encoding="UTF-8" standalone="no"?>
<!DOCTYPE svg PUBLIC "-//W3C//DTD SVG 1.1//EN" "http://www.w3.org/Graphics/SVG/1.1/DTD/svg11.dtd">
<svg width="100%" height="100%" viewBox="0 0 30 31" version="1.1" xmlns="http://www.w3.org/2000/svg" xmlns:xlink="http://www.w3.org/1999/xlink" xml:space="preserve" xmlns:serif="http://www.serif.com/" style="fill-rule:evenodd;clip-rule:evenodd;stroke-linejoin:round;stroke-miterlimit:2;">
    <g transform="matrix(1,0,0,1,0,-38)">
        <g transform="matrix(1,0,0,1,3.55271e-15,38.0774)">
            <rect id="budget" x="0" y="0" width="30" height="30" style="fill:none;"/>
            <g id="budget1" serif:id="budget">
                <g transform="matrix(1.36364,0,0,1.91304,-6.13636,-91.8003)">
                    <path d="M26.5,52.952L26.5,58.702C26.5,60.289 24.693,61.577 22.467,61.577L8.533,61.577C6.307,61.577 4.5,60.289 4.5,58.702L4.5,52.952C4.5,51.366 6.307,50.077 8.533,50.077L22.467,50.077C24.693,50.077 26.5,51.366 26.5,52.952ZM25.033,52.952C25.033,51.943 23.883,51.123 22.467,51.123L8.533,51.123C7.117,51.123 5.967,51.943 5.967,52.952L5.967,58.702C5.967,59.712 7.117,60.532 8.533,60.532L22.467,60.532C23.883,60.532 25.033,59.712 25.033,58.702L25.033,52.952Z" style="fill:rgb(55,55,55);"/>
                </g>
                <g transform="matrix(1.18067,0,0,1.18067,-2.45292,-49.0336)">
                    <g transform="matrix(8.37628,0,0,8.37628,17.1585,57.0774)">
                    </g>
                    <text x="12.5px" y="57.077px" style="font-family:'ArialMT', 'Arial', sans-serif;font-size:8.376px;fill:rgb(55,55,55);">$</text>
                </g>
                <g transform="matrix(1.13636,0,0,1.13636,-2.04545,-45.3153)">
                    <path d="M15,47.577C18.036,47.577 20.5,50.042 20.5,53.077C20.5,56.113 18.036,58.577 15,58.577C11.964,58.577 9.5,56.113 9.5,53.077C9.5,50.042 11.964,47.577 15,47.577ZM15,48.457C12.45,48.457 10.38,50.528 10.38,53.077C10.38,55.627 12.45,57.697 15,57.697C17.55,57.697 19.62,55.627 19.62,53.077C19.62,50.528 17.55,48.457 15,48.457Z" style="fill:rgb(55,55,55);"/>
                </g>
                <g transform="matrix(1.13532,0,0,2,-39.988,-92.1549)">
                    <rect x="37.84" y="53.077" width="4.011" height="1" style="fill:rgb(55,55,55);"/>
                </g>
                <g transform="matrix(1.12072,0,0,2,-19.9084,-92.1549)">
                    <rect x="37.84" y="53.077" width="4.011" height="1" style="fill:rgb(55,55,55);"/>
                </g>
            </g>
        </g>
    </g>
</svg>
