<?xml version="1.0" encoding="UTF-8" standalone="no"?>
<!DOCTYPE svg PUBLIC "-//W3C//DTD SVG 1.1//EN" "http://www.w3.org/Graphics/SVG/1.1/DTD/svg11.dtd">
<svg width="100%" height="100%" viewBox="0 0 31 31" version="1.1" xmlns="http://www.w3.org/2000/svg" xmlns:xlink="http://www.w3.org/1999/xlink" xml:space="preserve" xmlns:serif="http://www.serif.com/" style="fill-rule:evenodd;clip-rule:evenodd;stroke-linejoin:round;stroke-miterlimit:2;">
    <g transform="matrix(1,0,0,1,-33,-38)">
        <g transform="matrix(1,0,0,1,33.4222,38.0774)">
            <rect id="budget-active" x="0" y="0" width="30" height="30" style="fill:none;"/>
            <clipPath id="_clip1">
                <rect id="budget-active1" serif:id="budget-active" x="0" y="0" width="30" height="30"/>
            </clipPath>
            <g clip-path="url(#_clip1)">
                <g transform="matrix(1.18067,0,0,1.18067,-2.45292,-49.0336)">
                    <g transform="matrix(8.37628,0,0,8.37628,17.1585,57.0774)">
                    </g>
                    <text x="12.5px" y="57.077px" style="font-family:'ArialMT', 'Arial', sans-serif;font-size:8.376px;fill:rgb(73,95,55);">$</text>
                </g>
                <g transform="matrix(1.36364,0,0,1.91304,-6.13636,-91.8003)">
                    <path d="M26.5,52.952L26.5,58.702C26.5,60.289 24.693,61.577 22.467,61.577L8.533,61.577C6.307,61.577 4.5,60.289 4.5,58.702L4.5,52.952C4.5,51.366 6.307,50.077 8.533,50.077L22.467,50.077C24.693,50.077 26.5,51.366 26.5,52.952ZM24.708,55.305L21.412,55.305L21.412,56.35L24.708,56.35L24.708,55.305ZM9.633,55.305L6.337,55.305L6.337,56.35L9.633,56.35L9.633,55.305ZM15.5,52.56C12.97,52.56 10.917,54.024 10.917,55.827C10.917,57.631 12.97,59.094 15.5,59.094C18.03,59.094 20.083,57.631 20.083,55.827C20.083,54.024 18.03,52.56 15.5,52.56Z" style="fill:rgb(73,95,55);"/>
                    <path d="M26.5,52.952L26.5,58.702C26.5,60.289 24.693,61.577 22.467,61.577L8.533,61.577C6.307,61.577 4.5,60.289 4.5,58.702L4.5,52.952C4.5,51.366 6.307,50.077 8.533,50.077L22.467,50.077C24.693,50.077 26.5,51.366 26.5,52.952ZM5.967,54.293C6.085,54.271 6.209,54.259 6.337,54.259L9.633,54.259C9.709,54.259 9.784,54.263 9.857,54.271C10.733,52.659 12.93,51.515 15.5,51.515C18.072,51.515 20.272,52.662 21.146,54.276C21.232,54.265 21.321,54.259 21.412,54.259L24.708,54.259C24.82,54.259 24.929,54.268 25.033,54.285L25.033,52.952C25.033,51.943 23.883,51.123 22.467,51.123L8.533,51.123C7.117,51.123 5.967,51.943 5.967,52.952L5.967,54.293ZM15.5,52.56C12.97,52.56 10.917,54.024 10.917,55.827C10.917,57.631 12.97,59.094 15.5,59.094C18.03,59.094 20.083,57.631 20.083,55.827C20.083,54.024 18.03,52.56 15.5,52.56ZM9.633,55.305L6.337,55.305L6.337,56.35L9.633,56.35L9.633,55.305ZM25.033,57.37C24.929,57.387 24.82,57.396 24.708,57.396L21.412,57.396C21.321,57.396 21.232,57.39 21.146,57.378C20.272,58.993 18.072,60.14 15.5,60.14C12.93,60.14 10.733,58.996 9.857,57.384C9.784,57.392 9.709,57.396 9.633,57.396L6.337,57.396C6.209,57.396 6.085,57.384 5.967,57.362L5.967,58.702C5.967,59.712 7.117,60.532 8.533,60.532L22.467,60.532C23.883,60.532 25.033,59.712 25.033,58.702L25.033,57.37ZM24.708,55.305L21.412,55.305L21.412,56.35L24.708,56.35L24.708,55.305Z" style="fill:rgb(73,95,55);"/>
                </g>
            </g>
        </g>
    </g>
</svg>
