<?xml version="1.0" encoding="UTF-8" standalone="no"?>
<!DOCTYPE svg PUBLIC "-//W3C//DTD SVG 1.1//EN" "http://www.w3.org/Graphics/SVG/1.1/DTD/svg11.dtd">
<svg width="100%" height="100%" viewBox="0 0 31 30" version="1.1" xmlns="http://www.w3.org/2000/svg" xmlns:xlink="http://www.w3.org/1999/xlink" xml:space="preserve" xmlns:serif="http://www.serif.com/" style="fill-rule:evenodd;clip-rule:evenodd;stroke-linejoin:round;stroke-miterlimit:2;">
    <g transform="matrix(1,0,0,1,-33,0)">
        <g transform="matrix(1,0,0,1,33.4222,0)">
            <rect id="explore-active" x="0" y="0" width="30" height="30" style="fill:none;"/>
            <g id="explore-active1" serif:id="explore-active">
                <g transform="matrix(1.25,0,0,1.25,-3.75,-3.75)">
                    <g transform="matrix(1.33333,0,0,1.33333,5,5.66667)">
                        <circle cx="7.5" cy="7" r="9" style="fill:rgb(73,95,55);"/>
                        <path d="M7.5,-2C12.467,-2 16.5,2.033 16.5,7C16.5,11.967 12.467,16 7.5,16C2.533,16 -1.5,11.967 -1.5,7C-1.5,2.033 2.533,-2 7.5,-2ZM7.5,-1.4C2.864,-1.4 -0.9,2.364 -0.9,7C-0.9,11.636 2.864,15.4 7.5,15.4C12.136,15.4 15.9,11.636 15.9,7C15.9,2.364 12.136,-1.4 7.5,-1.4Z" style="fill:rgb(73,95,55);"/>
                    </g>
                    <g transform="matrix(7.75122e-17,1.26587,-1.26587,7.75122e-17,32.5195,-3.07436)">
                        <g transform="matrix(0.707107,-0.707107,0.707107,0.707107,-4.43936,12.4505)">
                            <path d="M12.25,8.5L15,14L9.5,14L12.25,8.5Z" style="fill:white;"/>
                            <path d="M12.25,8.5L15,14L9.5,14L12.25,8.5ZM12.25,9.419C12.25,9.419 10.165,13.589 10.165,13.589L14.335,13.589L12.25,9.419Z" style="fill:white;"/>
                        </g>
                        <g transform="matrix(-0.707107,0.707107,-0.707107,-0.707107,32.9958,15.2292)">
                            <path d="M12.25,8.5L15,14L9.5,14L12.25,8.5Z" style="fill:white;"/>
                            <path d="M12.25,8.5L15,14L9.5,14L12.25,8.5ZM12.25,9.419C12.25,9.419 10.165,13.589 10.165,13.589L14.335,13.589L12.25,9.419Z" style="fill:white;"/>
                        </g>
                    </g>
                    <g transform="matrix(0.96,0,0,0.96,0.6,0.6)">
                        <path d="M5.08,16.267C5.027,15.852 5,15.429 5,15C5,14.571 5.027,14.148 5.08,13.733L5.878,13.767L5.842,14.6C5.836,14.732 5.833,14.866 5.833,15C5.833,15.134 5.836,15.268 5.842,15.4L5.878,16.233L5.08,16.267ZM7.044,8.944L7.717,9.374L7.269,10.076C7.125,10.3 6.992,10.531 6.868,10.768L6.482,11.507L5.774,11.137C6.105,10.35 6.533,9.614 7.044,8.944ZM11.137,5.774L11.507,6.482L10.768,6.868C10.531,6.992 10.3,7.125 10.076,7.269L9.374,7.717L8.944,7.044C9.614,6.533 10.35,6.105 11.137,5.774ZM16.267,5.08L16.233,5.878L15.4,5.842C15.268,5.836 15.134,5.833 15,5.833C14.866,5.833 14.732,5.836 14.6,5.842L13.767,5.878L13.733,5.08C14.148,5.027 14.571,5 15,5C15.429,5 15.852,5.027 16.267,5.08ZM21.056,7.044L20.626,7.717L19.924,7.269C19.7,7.125 19.469,6.992 19.232,6.868L18.493,6.482L18.863,5.774C19.65,6.105 20.386,6.533 21.056,7.044ZM24.226,11.137L23.518,11.507L23.132,10.768C23.008,10.531 22.875,10.3 22.731,10.076L22.283,9.374L22.956,8.944C23.467,9.614 23.895,10.35 24.226,11.137ZM24.92,16.267L24.122,16.233L24.158,15.4C24.164,15.268 24.167,15.134 24.167,15C24.167,14.866 24.164,14.732 24.158,14.6L24.122,13.767L24.92,13.733C24.973,14.148 25,14.571 25,15C25,15.429 24.973,15.852 24.92,16.267ZM22.956,21.056L22.283,20.626L22.731,19.924C22.875,19.7 23.008,19.469 23.132,19.232L23.518,18.493L24.226,18.863C23.895,19.65 23.467,20.386 22.956,21.056ZM18.863,24.226L18.493,23.518L19.232,23.132C19.469,23.008 19.7,22.875 19.924,22.731L20.626,22.283L21.056,22.956C20.386,23.467 19.65,23.895 18.863,24.226ZM13.733,24.92L13.767,24.122L14.6,24.158C14.732,24.164 14.866,24.167 15,24.167C15.134,24.167 15.268,24.164 15.4,24.158L16.233,24.122L16.267,24.92C15.852,24.973 15.429,25 15,25C14.571,25 14.148,24.973 13.733,24.92ZM8.944,22.956L9.374,22.283L10.076,22.731C10.3,22.875 10.531,23.008 10.768,23.132L11.507,23.518L11.137,24.226C10.35,23.895 9.614,23.467 8.944,22.956ZM5.774,18.863L6.482,18.493L6.868,19.232C6.992,19.469 7.125,19.7 7.269,19.924L7.717,20.626L7.044,21.056C6.533,20.386 6.105,19.65 5.774,18.863Z" style="fill:white;"/>
                    </g>
                </g>
            </g>
        </g>
    </g>
</svg>
