<?xml version="1.0" encoding="UTF-8" standalone="no"?>
<!DOCTYPE svg PUBLIC "-//W3C//DTD SVG 1.1//EN" "http://www.w3.org/Graphics/SVG/1.1/DTD/svg11.dtd">
<svg width="100%" height="100%" viewBox="0 0 51 14" version="1.1" xmlns="http://www.w3.org/2000/svg" xmlns:xlink="http://www.w3.org/1999/xlink" xml:space="preserve" xmlns:serif="http://www.serif.com/" style="fill-rule:evenodd;clip-rule:evenodd;stroke-linejoin:round;stroke-miterlimit:2;">
    <g transform="matrix(1,0,0,1,-7,-136)">
        <g transform="matrix(1.66533,0,0,1.39494,6.77037,-12.7099)">
            <rect id="Artboard1" x="0.422" y="107.077" width="30" height="9" style="fill:none;"/>
            <g id="Artboard11" serif:id="Artboard1">
                <g transform="matrix(1.08373,0,0,1.08373,-1.05871,-9.36501)">
                    <g transform="matrix(0.544582,0,0,0.650138,11.7101,37.6909)">
                        <path d="M6.422,110.029L7.32,112.793L10.226,112.793L7.875,114.502L8.773,117.265L6.422,115.557L4.071,117.265L4.969,114.502L2.618,112.793L5.524,112.793L6.422,110.029Z" style="fill:rgb(120,147,115);"/>
                        <path d="M6.422,110.029L7.32,112.793L10.226,112.793L7.875,114.502L8.773,117.265L6.422,115.557L4.071,117.265L4.969,114.502L2.618,112.793L5.524,112.793L6.422,110.029ZM6.422,111.182L5.783,113.149L3.714,113.149L5.388,114.365L4.748,116.333L6.422,115.117L8.096,116.333L7.457,114.365L9.13,113.149L7.062,113.149L6.422,111.182Z" style="fill:rgb(73,95,55);"/>
                    </g>
                    <g transform="matrix(0.544582,0,0,0.650138,5.87878,37.6909)">
                        <path d="M6.422,110.029L7.32,112.793L10.226,112.793L7.875,114.502L8.773,117.265L6.422,115.557L4.071,117.265L4.969,114.502L2.618,112.793L5.524,112.793L6.422,110.029Z" style="fill:rgb(120,147,115);"/>
                        <path d="M6.422,110.029L7.32,112.793L10.226,112.793L7.875,114.502L8.773,117.265L6.422,115.557L4.071,117.265L4.969,114.502L2.618,112.793L5.524,112.793L6.422,110.029ZM6.422,111.182L5.783,113.149L3.714,113.149L5.388,114.365L4.748,116.333L6.422,115.117L8.096,116.333L7.457,114.365L9.13,113.149L7.062,113.149L6.422,111.182Z" style="fill:rgb(73,95,55);"/>
                    </g>
                    <g transform="matrix(0.544582,0,0,0.650138,17.5415,37.6909)">
                        <path d="M6.422,110.029L7.32,112.793L10.226,112.793L7.875,114.502L8.773,117.265L6.422,115.557L4.071,117.265L4.969,114.502L2.618,112.793L5.524,112.793L6.422,110.029Z" style="fill:rgb(120,147,115);"/>
                        <path d="M6.422,110.029L7.32,112.793L10.226,112.793L7.875,114.502L8.773,117.265L6.422,115.557L4.071,117.265L4.969,114.502L2.618,112.793L5.524,112.793L6.422,110.029ZM6.422,111.182L5.783,113.149L3.714,113.149L5.388,114.365L4.748,116.333L6.422,115.117L8.096,116.333L7.457,114.365L9.13,113.149L7.062,113.149L6.422,111.182Z" style="fill:rgb(73,95,55);"/>
                    </g>
                    <g transform="matrix(0.544582,0,0,0.650138,23.3729,37.6909)">
                        <path d="M6.422,110.029L7.32,112.793L10.226,112.793L7.875,114.502L8.773,117.265L6.422,115.557L4.071,117.265L4.969,114.502L2.618,112.793L5.524,112.793L6.422,110.029ZM6.422,111.182L5.783,113.149L3.714,113.149L5.388,114.365L4.748,116.333L6.422,115.117L8.096,116.333L7.457,114.365L9.13,113.149L7.062,113.149L6.422,111.182Z" style="fill:rgb(73,95,55);"/>
                    </g>
                    <g transform="matrix(0.544582,0,0,0.650138,0.047421,37.6938)">
                        <path d="M6.422,110.029L7.32,112.793L10.226,112.793L7.875,114.502L8.773,117.265L6.422,115.557L4.071,117.265L4.969,114.502L2.618,112.793L5.524,112.793L6.422,110.029Z" style="fill:rgb(120,147,115);"/>
                        <path d="M6.422,110.029L7.32,112.793L10.226,112.793L7.875,114.502L8.773,117.265L6.422,115.557L4.071,117.265L4.969,114.502L2.618,112.793L5.524,112.793L6.422,110.029ZM6.422,111.182L5.783,113.149L3.714,113.149L5.388,114.365L4.748,116.333L6.422,115.117L8.096,116.333L7.457,114.365L9.13,113.149L7.062,113.149L6.422,111.182Z" style="fill:rgb(73,95,55);"/>
                    </g>
                </g>
            </g>
        </g>
    </g>
</svg>
