<?xml version="1.0" encoding="UTF-8" standalone="no"?><!DOCTYPE svg PUBLIC "-//W3C//DTD SVG 1.1//EN" "http://www.w3.org/Graphics/SVG/1.1/DTD/svg11.dtd"><svg width="100%" height="100%" viewBox="0 0 213 209" version="1.1" xmlns="http://www.w3.org/2000/svg" xmlns:xlink="http://www.w3.org/1999/xlink" xml:space="preserve" xmlns:serif="http://www.serif.com/" style="fill-rule:evenodd;clip-rule:evenodd;stroke-linecap:round;stroke-linejoin:round;"><rect id="mat" x="0.887" y="0" width="208.333" height="208.333" style="fill:none;"/><clipPath id="_clip1"><rect id="mat1" serif:id="mat" x="0.887" y="0" width="208.333" height="208.333"/></clipPath><g clip-path="url(#_clip1)"><circle cx="105.053" cy="104.167" r="104.167" style="fill:#fc8e08;"/><g><path d="M67.9,49.089c-0,0 -3.172,37.885 9.815,43.769l-0,62.18c-0,0 0.21,5.465 6.893,5.465c7.535,-0 7.994,-5.465 7.994,-5.465l-0,-62.18c12.999,-5.923 9.815,-43.769 9.815,-43.769" style="fill:none;fill-rule:nonzero;stroke:#373737;stroke-width:7.86px;"/><path d="M79.799,49.089l-0,28.227" style="fill:none;fill-rule:nonzero;stroke:#373737;stroke-width:7.43px;"/><path d="M90.977,49.089l-0,28.227" style="fill:none;fill-rule:nonzero;stroke:#373737;stroke-width:7.43px;"/></g><path d="M141.809,51.972l-0,104.665c-0,0 -0,4.023 -6.946,4.023c-6.054,0 -7.063,-4.023 -7.063,-4.023l0,-50.321c0,0 -12.698,4.613 -11.938,-5.294c2.241,-27.808 25.907,-62.469 25.907,-49.011l0.04,-0.039Z" style="fill:none;fill-rule:nonzero;stroke:#373737;stroke-width:7.86px;"/></g></svg>