<?xml version="1.0" encoding="UTF-8" standalone="no"?><!DOCTYPE svg PUBLIC "-//W3C//DTD SVG 1.1//EN" "http://www.w3.org/Graphics/SVG/1.1/DTD/svg11.dtd"><svg width="100%" height="100%" viewBox="0 0 213 209" version="1.1" xmlns="http://www.w3.org/2000/svg" xmlns:xlink="http://www.w3.org/1999/xlink" xml:space="preserve" xmlns:serif="http://www.serif.com/" style="fill-rule:evenodd;clip-rule:evenodd;stroke-linecap:round;stroke-linejoin:round;stroke-miterlimit:1.5;"><rect id="resa" x="0.887" y="0" width="208.333" height="208.333" style="fill:none;"/><clipPath id="_clip1"><rect id="resa1" serif:id="resa" x="0.887" y="0" width="208.333" height="208.333"/></clipPath><g clip-path="url(#_clip1)"><circle cx="105.053" cy="104.167" r="104.167" style="fill:#fc8e08;"/><g><path d="M79.167,155.556l-0,9.722" style="fill:none;stroke:#373737;stroke-width:16.67px;"/><path d="M133.333,155.556l0,8.333" style="fill:none;stroke:#373737;stroke-width:16.67px;"/></g><path d="M155.053,80.208c0,-13.223 -10.735,-23.958 -23.958,-23.958l-52.083,0c-13.223,0 -23.959,10.735 -23.959,23.958l0,47.917c0,13.223 10.736,23.958 23.959,23.958l52.083,0c13.223,0 23.958,-10.735 23.958,-23.958l0,-47.917Z" style="fill:none;stroke:#373737;stroke-width:10.42px;"/><path d="M134.22,86.458c-0,-4.024 -3.267,-7.291 -7.292,-7.291l-43.75,-0c-4.024,-0 -7.291,3.267 -7.291,7.291l-0,14.584c-0,4.024 3.267,7.291 7.291,7.291l43.75,0c4.025,0 7.292,-3.267 7.292,-7.291l-0,-14.584Z" style="fill:none;stroke:#373737;stroke-width:8.33px;"/><g><circle cx="86.303" cy="129.167" r="8.333" style="fill:none;stroke:#373737;stroke-width:8.33px;"/><circle cx="123.803" cy="129.167" r="8.333" style="fill:none;stroke:#373737;stroke-width:8.33px;"/></g></g></svg>