<?xml version="1.0" encoding="UTF-8" standalone="no"?>
<!DOCTYPE svg PUBLIC "-//W3C//DTD SVG 1.1//EN" "http://www.w3.org/Graphics/SVG/1.1/DTD/svg11.dtd">
<svg width="100%" height="100%" viewBox="0 0 160 161" version="1.1" xmlns="http://www.w3.org/2000/svg" xmlns:xlink="http://www.w3.org/1999/xlink" xml:space="preserve" xmlns:serif="http://www.serif.com/" style="fill-rule:evenodd;clip-rule:evenodd;stroke-linecap:round;stroke-linejoin:round;stroke-miterlimit:1.5;">
    <g transform="matrix(1,0,0,1,0,-171)">
        <g transform="matrix(1,0,0,1,0,171.647)">
            <rect id="camping" x="0" y="0" width="160" height="160" style="fill:none;"/>
            <g id="camping1" serif:id="camping">
                <g>
                    <g transform="matrix(1,0,0,1,-27.5,-170.147)">
                        <path d="M107.5,221.647L145,296.647L70,296.647L107.5,221.647Z" style="fill:none;stroke:rgb(55,55,55);stroke-width:4px;"/>
                    </g>
                    <g transform="matrix(0.910449,-0.0318347,0.256169,0.826199,-49.5418,-130.639)">
                        <path d="M80,223.147L89.452,211.647" style="fill:none;stroke:rgb(55,55,55);stroke-width:4.01px;"/>
                    </g>
                    <g transform="matrix(0.856267,0.166582,-0.401678,0.809857,101.132,-141.164)">
                        <path d="M80,223.147L66.848,211.647" style="fill:none;stroke:rgb(55,55,55);stroke-width:5.25px;"/>
                    </g>
                </g>
                <g transform="matrix(1,0,0,1.35619,12.5,-277.844)">
                    <path d="M67.5,273.147L80,298.147L55,298.147L67.5,273.147Z" style="fill:none;stroke:rgb(55,55,55);stroke-width:3.36px;"/>
                </g>
                <g transform="matrix(1,0,0,1,-1.76303,-174.884)">
                    <circle cx="81.763" cy="254.884" r="3.237" style="fill:rgb(55,55,55);stroke:rgb(55,55,55);stroke-width:4px;"/>
                </g>
            </g>
        </g>
    </g>
</svg>
