<?xml version="1.0" encoding="UTF-8" standalone="no"?>
<!DOCTYPE svg PUBLIC "-//W3C//DTD SVG 1.1//EN" "http://www.w3.org/Graphics/SVG/1.1/DTD/svg11.dtd">
<svg width="100%" height="100%" viewBox="0 0 160 161" version="1.1" xmlns="http://www.w3.org/2000/svg" xmlns:xlink="http://www.w3.org/1999/xlink" xml:space="preserve" xmlns:serif="http://www.serif.com/" style="fill-rule:evenodd;clip-rule:evenodd;stroke-linecap:round;stroke-linejoin:round;stroke-miterlimit:1.5;">
    <g transform="matrix(1,0,0,1,0,-343)">
        <g transform="matrix(1,0,0,1,0,343.073)">
            <rect id="church" x="0" y="0" width="160" height="160" style="fill:none;"/>
            <g id="church1" serif:id="church">
                <g transform="matrix(20.0972,0,0,1.92,-1575.78,-64)">
                    <rect x="80" y="50" width="4.777" height="50" style="fill:none;stroke:black;stroke-width:0.03px;"/>
                </g>
                <g transform="matrix(1.13723,0,0,1.13723,-10.9781,-16.6642)">
                    <g transform="matrix(1,0,0,1,0,-3)">
                        <g transform="matrix(1.05521,0,0,0.662668,0.732567,-184.165)">
                            <rect x="50" y="413.073" width="50.24" height="58" style="fill:none;stroke:rgb(55,55,55);stroke-width:3.99px;"/>
                        </g>
                        <g transform="matrix(0.662668,0,0,0.662668,26.9865,-184.165)">
                            <path d="M80,375.073L128,413.073L32,413.073L80,375.073Z" style="fill:none;stroke:rgb(55,55,55);stroke-width:5.31px;"/>
                        </g>
                        <g transform="matrix(1,0,0,1.13904,0,-399.728)">
                            <path d="M80,407.457L80,393.073" style="fill:none;stroke:rgb(55,55,55);stroke-width:3.28px;"/>
                        </g>
                        <g transform="matrix(0.73387,0,0,1,21.4275,-343.073)">
                            <path d="M73,397.073L87,397.073" style="fill:none;stroke:rgb(55,55,55);stroke-width:4.01px;"/>
                        </g>
                    </g>
                    <g transform="matrix(1,0,0,1,-3.10734,-343.073)">
                        <rect x="76.763" y="448.073" width="12.689" height="20" style="fill:none;stroke:rgb(55,55,55);stroke-width:3.52px;"/>
                    </g>
                </g>
            </g>
        </g>
    </g>
</svg>
