<?xml version="1.0" encoding="UTF-8" standalone="no"?><!DOCTYPE svg PUBLIC "-//W3C//DTD SVG 1.1//EN" "http://www.w3.org/Graphics/SVG/1.1/DTD/svg11.dtd"><svg width="100%" height="100%" viewBox="0 0 671 667" version="1.1" xmlns="http://www.w3.org/2000/svg" xmlns:xlink="http://www.w3.org/1999/xlink" xml:space="preserve" xmlns:serif="http://www.serif.com/" style="fill-rule:evenodd;clip-rule:evenodd;stroke-linecap:round;stroke-linejoin:round;stroke-miterlimit:1.5;"><rect id="hamburger" x="3.32" y="0" width="666.667" height="666.667" style="fill:none;"/><g id="hamburger1" serif:id="hamburger"><g><path d="M514.455,433.267l-355.603,0l-0,44.016c-0,12.186 9.879,22.065 22.065,22.065c63.4,-0 245.683,-0 310.402,-0c6.136,-0 12.021,-2.438 16.36,-6.777c4.339,-4.339 6.776,-10.223 6.776,-16.36c0,-19.051 0,-42.944 0,-42.944Z" style="fill:none;stroke:#373737;stroke-width:16.67px;"/><path d="M499.033,330.411c16.457,-16.529 25.121,-35.279 25.121,-54.364c-0,-60.009 -84.016,-108.728 -187.5,-108.728c-103.484,-0 -187.5,48.719 -187.5,108.728c-0,19.085 8.663,37.835 25.12,54.364l324.759,-0Z" style="fill:none;stroke:#373737;stroke-width:16.67px;"/><path d="M490.988,372.778c-0,-5.957 -4.837,-10.794 -10.795,-10.794l-287.079,-0c-5.957,-0 -10.794,4.837 -10.794,10.794l-0,21.59c-0,5.957 4.837,10.794 10.794,10.794l287.079,0c5.958,0 10.795,-4.837 10.795,-10.794l-0,-21.59Z" style="fill:none;stroke:#373737;stroke-width:16.67px;"/></g><path d="M253.32,209.252l41.667,0" style="fill:none;stroke:#373737;stroke-width:16.67px;"/><path d="M211.654,247.66l20.833,-0" style="fill:none;stroke:#373737;stroke-width:16.67px;"/><path d="M408.029,215.075l20.834,0" style="fill:none;stroke:#373737;stroke-width:16.67px;"/><path d="M336.654,247.66l41.666,-0" style="fill:none;stroke:#373737;stroke-width:16.67px;"/><path d="M274.154,285.618l41.666,0" style="fill:none;stroke:#373737;stroke-width:16.67px;"/><path d="M399.154,273.345l41.666,0" style="fill:none;stroke:#373737;stroke-width:16.67px;"/><g><path d="M271.06,363.642l-44.901,41.52" style="fill:none;stroke:#373737;stroke-width:16.67px;"/><path d="M329.689,362.5l-36.187,37.5" style="fill:none;stroke:#373737;stroke-width:16.67px;"/><path d="M388.022,363.911l-35.892,37.195" style="fill:none;stroke:#373737;stroke-width:16.67px;"/><path d="M447.149,361.984l-36.686,38.016" style="fill:none;stroke:#373737;stroke-width:16.67px;"/></g></g></svg>