<?xml version="1.0" encoding="UTF-8" standalone="no"?>
<!DOCTYPE svg PUBLIC "-//W3C//DTD SVG 1.1//EN" "http://www.w3.org/Graphics/SVG/1.1/DTD/svg11.dtd">
<svg width="100%" height="100%" viewBox="0 0 161 160" version="1.1" xmlns="http://www.w3.org/2000/svg" xmlns:xlink="http://www.w3.org/1999/xlink" xml:space="preserve" xmlns:serif="http://www.serif.com/" style="fill-rule:evenodd;clip-rule:evenodd;stroke-linecap:round;stroke-linejoin:round;stroke-miterlimit:1.5;">
    <g transform="matrix(1,0,0,1,-347,0)">
        <g transform="matrix(1,0,0,1,347.797,0)">
            <rect id="hamburger" x="0" y="0" width="160" height="160" style="fill:none;"/>
            <g id="hamburger1" serif:id="hamburger">
                <g transform="matrix(1.55172,0,0,1.55172,-44.1379,-40.4297)">
                    <g transform="matrix(0.916667,0,0,1,-312.147,-6.93333)">
                        <path d="M457.797,100L397.797,100L397.797,106.808C397.797,108.693 399.464,110.221 401.52,110.221C412.217,110.221 442.973,110.221 453.893,110.221C454.928,110.221 455.921,109.843 456.653,109.172C457.386,108.501 457.797,107.591 457.797,106.642C457.797,103.695 457.797,100 457.797,100Z" style="fill:none;stroke:rgb(55,55,55);stroke-width:2.69px;"/>
                    </g>
                    <g transform="matrix(0.966667,0,0,0.727913,-333.537,15.3772)">
                        <path d="M453.778,84.874C456.411,81.362 457.797,77.378 457.797,73.323C457.797,60.572 444.354,50.221 427.797,50.221C411.239,50.221 397.797,60.572 397.797,73.323C397.797,77.378 399.183,81.362 401.816,84.874L453.778,84.874Z" style="fill:none;stroke:rgb(55,55,55);stroke-width:3.01px;"/>
                    </g>
                    <g transform="matrix(1,0,0,0.65,-347.183,32.0537)">
                        <path d="M451.053,79.473C451.053,78.055 450.305,76.904 449.384,76.904L404.982,76.904C404.061,76.904 403.313,78.055 403.313,79.473L403.313,84.61C403.313,86.028 404.061,87.179 404.982,87.179L449.384,87.179C450.305,87.179 451.053,86.028 451.053,84.61L451.053,79.473Z" style="fill:none;stroke:rgb(55,55,55);stroke-width:3.06px;"/>
                    </g>
                </g>
                <g transform="matrix(1,0,0,1,-347.797,0)">
                    <path d="M407.797,50.221L417.797,50.221" style="fill:none;stroke:rgb(55,55,55);stroke-width:4px;"/>
                </g>
                <g transform="matrix(1,0,0,1,-347.797,0)">
                    <path d="M397.797,59.438L402.797,59.438" style="fill:none;stroke:rgb(55,55,55);stroke-width:4px;"/>
                </g>
                <g transform="matrix(1,0,0,1,-300.667,-7.82031)">
                    <path d="M397.797,59.438L402.797,59.438" style="fill:none;stroke:rgb(55,55,55);stroke-width:4px;"/>
                </g>
                <g transform="matrix(1,0,0,1,-357.797,4.43836)">
                    <path d="M437.797,55L447.797,55" style="fill:none;stroke:rgb(55,55,55);stroke-width:4px;"/>
                </g>
                <g transform="matrix(1,0,0,1,-352.797,3.54833)">
                    <path d="M417.797,65L427.797,65" style="fill:none;stroke:rgb(55,55,55);stroke-width:4px;"/>
                </g>
                <g transform="matrix(1,0,0,1,-347.797,0)">
                    <path d="M442.797,65.603L452.797,65.603" style="fill:none;stroke:rgb(55,55,55);stroke-width:4px;"/>
                </g>
                <g transform="matrix(1,0,0,1,-2.67153,0)">
                    <g transform="matrix(1.04186,-0.038704,-0.038704,1.03579,-349.353,12.5654)">
                        <path d="M402.797,87.179L392.797,96.425" style="fill:none;stroke:rgb(55,55,55);stroke-width:4px;"/>
                    </g>
                    <g transform="matrix(0.93659,0.0657105,0.0657105,0.931906,-316.013,-21.414)">
                        <path d="M417.797,86.876L407.797,97.239" style="fill:none;stroke:rgb(55,55,55);stroke-width:4px;"/>
                    </g>
                    <g transform="matrix(0.933175,0.0692494,0.0692494,0.928239,-314.891,-23.274)">
                        <path d="M432.797,86.876L422.797,97.239" style="fill:none;stroke:rgb(55,55,55);stroke-width:4px;"/>
                    </g>
                    <g transform="matrix(0.942353,0.0597384,0.0597384,0.938095,-317.982,-21.3726)">
                        <path d="M447.797,86.876L437.797,97.239" style="fill:none;stroke:rgb(55,55,55);stroke-width:4px;"/>
                    </g>
                </g>
            </g>
        </g>
    </g>
</svg>
