<?xml version="1.0" encoding="UTF-8" standalone="no"?>
<!DOCTYPE svg PUBLIC "-//W3C//DTD SVG 1.1//EN" "http://www.w3.org/Graphics/SVG/1.1/DTD/svg11.dtd">
<svg width="100%" height="100%" viewBox="0 0 160 160" version="1.1" xmlns="http://www.w3.org/2000/svg" xmlns:xlink="http://www.w3.org/1999/xlink" xml:space="preserve" xmlns:serif="http://www.serif.com/" style="fill-rule:evenodd;clip-rule:evenodd;stroke-linecap:round;stroke-linejoin:round;stroke-miterlimit:1.5;">
    <rect id="pizza" x="0" y="0" width="160" height="160" style="fill:none;"/>
    <g id="pizza1" serif:id="pizza">
        <g transform="matrix(-0.999273,0.46651,-0.46651,-0.999273,159.585,152.808)">
            <path d="M32.5,42L70,117C70,117 54.587,123.951 31.853,123.951C9.12,123.951 -5,117 -5,117L32.5,42Z" style="fill:none;stroke:rgb(55,55,55);stroke-width:3.63px;"/>
        </g>
        <g transform="matrix(1.02742,0,0,1.02742,-0.961116,-3.45464)">
            <path d="M47,79C47,79 50.129,67.367 60,64C69.871,60.633 73.297,53.905 81,51C88.955,48 98.703,51.853 107.732,46" style="fill:none;stroke:rgb(55,55,55);stroke-width:3.89px;"/>
        </g>
        <g transform="matrix(1.02742,0,0,1.02742,9.31306,-0.372382)">
            <circle cx="61" cy="80" r="5" style="fill:none;stroke:rgb(55,55,55);stroke-width:3.89px;"/>
        </g>
        <g transform="matrix(1.02742,0,0,1.02742,-6.61191,-7.56431)">
            <circle cx="96.5" cy="93.5" r="7.5" style="fill:none;stroke:rgb(55,55,55);stroke-width:3.89px;"/>
        </g>
        <g transform="matrix(1.02742,0,0,1.02742,4.17597,-7.56431)">
            <circle cx="83" cy="71" r="6" style="fill:none;stroke:rgb(55,55,55);stroke-width:3.89px;"/>
        </g>
    </g>
</svg>
