<?xml version="1.0" encoding="UTF-8" standalone="no"?><!DOCTYPE svg PUBLIC "-//W3C//DTD SVG 1.1//EN" "http://www.w3.org/Graphics/SVG/1.1/DTD/svg11.dtd"><svg width="100%" height="100%" viewBox="0 0 667 671" version="1.1" xmlns="http://www.w3.org/2000/svg" xmlns:xlink="http://www.w3.org/1999/xlink" xml:space="preserve" xmlns:serif="http://www.serif.com/" style="fill-rule:evenodd;clip-rule:evenodd;stroke-linecap:round;stroke-linejoin:round;stroke-miterlimit:1.5;"><rect id="swimming" x="0" y="2.082" width="666.667" height="666.667" style="fill:none;"/><g id="swimming1" serif:id="swimming"><g><path d="M316.667,412.124l-0,-213.657c-0,-71.305 57.211,-77.709 57.211,27.951" style="fill:none;stroke:#373737;stroke-width:16.67px;"/><path d="M434.455,415.365c-0,-0 -1.833,-166.204 -0,-216.258c2.524,-68.932 57.212,-78.654 57.212,28.292" style="fill:none;stroke:#373737;stroke-width:16.67px;"/><path d="M316.667,256.566l116.715,0" style="fill:none;stroke:#373737;stroke-width:16.67px;"/><path d="M316.667,308.419l116.715,-0" style="fill:none;stroke:#373737;stroke-width:16.67px;"/><path d="M316.667,360.271l116.715,0" style="fill:none;stroke:#373737;stroke-width:16.67px;"/></g><path d="M141.667,431.391c13.791,-6.176 41.372,-18.526 62.169,-18.504c20.797,0.022 42.105,18.527 62.611,18.635c20.507,0.108 40.049,-18.056 60.428,-17.985c20.38,0.07 40.413,18.652 61.85,18.408c21.437,-0.244 43.738,-20.105 66.773,-19.873c23.034,0.231 47.624,14.174 71.436,21.261" style="fill:none;stroke:#373737;stroke-width:16.67px;"/><path d="M141.667,473.487c13.791,-6.175 41.372,-18.525 62.169,-18.503c20.797,0.022 42.105,18.527 62.611,18.635c20.507,0.108 40.049,-18.056 60.428,-17.985c20.38,0.07 40.413,18.652 61.85,18.408c21.437,-0.244 43.738,-20.105 66.773,-19.873c23.034,0.231 47.624,14.174 71.436,21.261" style="fill:none;stroke:#373737;stroke-width:16.67px;"/></g></svg>