<?xml version="1.0" encoding="UTF-8"?>
<svg id="Layer_1" data-name="Layer 1" xmlns="http://www.w3.org/2000/svg" viewBox="0 0 160 160">
  <defs>
    <style>
      .cls-1 {
        stroke-width: 0px;
      }

      .cls-1, .cls-2 {
        fill: #373737;
      }

      .cls-2 {
        stroke: #373737;
        stroke-miterlimit: 10;
        stroke-width: 2px;
      }
    </style>
  </defs>
  <g>
    <g>
      <path class="cls-1" d="M97.05,88.22v35.78h-34.11v-35.78h34.11M101.05,84.22h-42.11v43.78h42.11v-43.78h0Z"/>
      <path class="cls-1" d="M80,57.53l25.54,26.56h-51.08l25.54-26.56M80,53.53c-1.09,0-2.13.44-2.88,1.23l-25.54,26.56c-1.11,1.16-1.43,2.86-.8,4.34.63,1.48,2.08,2.43,3.68,2.43h51.08c1.6,0,3.05-.96,3.68-2.43.63-1.48.31-3.18-.8-4.34l-25.54-26.56c-.75-.78-1.8-1.23-2.88-1.23h0Z"/>
    </g>
    <path class="cls-1" d="M84.58,107.24c.81,0,1.47.66,1.47,1.47v14.83c0,.81-.66,1.47-1.47,1.47h-9.16c-.81,0-1.47-.66-1.47-1.47v-14.83c0-.81.66-1.47,1.47-1.47h9.16M84.58,104.24h-9.16c-2.47,0-4.47,2-4.47,4.47v14.83c0,2.47,2,4.47,4.47,4.47h9.16c2.47,0,4.47-2,4.47-4.47v-14.83c0-2.47-2-4.47-4.47-4.47h0Z"/>
  </g>
  <g>
    <line class="cls-2" x1="92.03" y1="60" x2="67.97" y2="82.57"/>
    <line class="cls-2" x1="67.97" y1="60" x2="92.03" y2="82.57"/>
    <path class="cls-2" d="M69.93,58.9l-3.34,3.13c-.77.72-1.97.72-2.74,0l-22.83-21.41c-.84-.79-.84-2.13,0-2.92l3.34-3.13c.77-.72,1.97-.72,2.74,0l22.83,21.41c.84.79.84,2.13,0,2.92Z"/>
    <path class="cls-2" d="M118.96,104.87l-3.34,3.13c-.77.72-1.97.72-2.74,0l-22.83-21.41c-.84-.79-.84-2.13,0-2.92l3.34-3.13c.77-.72,1.97-.72,2.74,0l22.83,21.41c.84.79.84,2.13,0,2.92Z"/>
    <path class="cls-2" d="M94.09,62.66l-4.8-4.5c-.42-.4-.42-1.06,0-1.46l24.3-22.78c.38-.36.98-.36,1.37,0l4.8,4.5c.42.4.42,1.06,0,1.46l-24.3,22.78c-.38.36-.98.36-1.37,0Z"/>
    <path class="cls-2" d="M44.36,108.01l-3.34-3.13c-.84-.79-.84-2.13,0-2.92l22.83-21.41c.77-.72,1.97-.72,2.74,0l3.34,3.13c.84.79.84,2.13,0,2.92l-22.83,21.41c-.77.72-1.97.72-2.74,0Z"/>
  </g>
  <ellipse class="cls-2" cx="80" cy="71.29" rx="3.81" ry="3.57"/>
</svg>