<?xml version="1.0" encoding="UTF-8"?>
<svg id="Layer_1" data-name="Layer 1" xmlns="http://www.w3.org/2000/svg" viewBox="0 0 40 35.25">
<path
  d="M3.86,17.7C.06,13.89.06,7.69,3.86,3.86c1.84-1.84,4.29-2.85,6.91-2.85s5.08,1.01,6.92,2.85l2.31,2.31,2.31-2.31c1.85-1.85,4.3-2.86,6.9-2.86s5.06,1.02,6.9,2.86c1.86,1.86,2.88,4.31,2.88,6.92s-1.02,5.06-2.88,6.92l-1.58,1.61-14.54,14.54L3.86,17.7Z"
  style="fill: #fff; stroke-width: 0px;" />
<path
  d="M29.21,2c2.34,0,4.54.91,6.2,2.57,1.67,1.67,2.59,3.87,2.59,6.21s-.92,4.54-2.6,6.22l-1.56,1.59-13.83,13.83-13.83-13.83-1.6-1.6c-3.41-3.41-3.41-8.99,0-12.42,1.65-1.65,3.86-2.56,6.21-2.56s4.56.91,6.21,2.56l1.6,1.6,1.41,1.41,1.41-1.41,1.6-1.6c1.66-1.66,3.86-2.57,6.2-2.57M29.21,0c-2.75,0-5.51,1.05-7.61,3.15l-1.6,1.6-1.6-1.6C16.29,1.04,13.55,0,10.78,0S5.27,1.04,3.15,3.15C-1.05,7.39-1.05,14.2,3.15,18.4l1.6,1.6,15.25,15.25,15.25-15.25,1.57-1.6c2.12-2.12,3.17-4.86,3.17-7.62s-1.06-5.51-3.17-7.62c-2.1-2.1-4.86-3.15-7.61-3.15h0Z"
  style="fill: #000; stroke-width: 0px;" />
</svg>