<?xml version="1.0" encoding="UTF-8"?>
<svg id="Layer_1" data-name="Layer 1" xmlns="http://www.w3.org/2000/svg" viewBox="0 0 160 160">
  <defs>
    <style>
      .cls-1 {
        fill: #373737;
        stroke-width: 0px;
      }

      .cls-2 {
        stroke-linejoin: round;
        stroke-width: 4px;
      }

      .cls-2, .cls-3 {
        fill: none;
        stroke: #373737;
        stroke-linecap: round;
      }

      .cls-3 {
        stroke-miterlimit: 10;
        stroke-width: 3px;
      }
    </style>
  </defs>
  <g>
    <g>
      <line class="cls-2" x1="64.66" y1="119.68" x2="64.66" y2="88.45"/>
      <line class="cls-2" x1="95.19" y1="116.93" x2="95.19" y2="78.68"/>
    </g>
    <path class="cls-1" d="M34.37,125.79c25.44-16.01,68.58-15.9,93.96.22.51.32.28,1.18-.33,1.18-5.85.2-17.56.47-23.41.54-19.36.24-39.13.18-58.52-.19,0,0-11.7-.34-11.7-.34-.6,0-.86-.86-.34-1.18,0,0,.34-.22.34-.22h0Z"/>
  </g>
  <ellipse class="cls-2" cx="64.66" cy="83.64" rx="11.79" ry="18.61"/>
  <ellipse class="cls-2" cx="95.19" cy="69.65" rx="11.79" ry="24.05"/>
  <line class="cls-2" x1="95.19" y1="78.68" x2="95.19" y2="74.08"/>
  <line class="cls-2" x1="95.19" y1="82.57" x2="89.97" y2="77.28"/>
  <line class="cls-2" x1="95.19" y1="86.69" x2="99.97" y2="81.59"/>
  <line class="cls-3" x1="63.99" y1="95.23" x2="58.66" y2="90.51"/>
  <line class="cls-3" x1="65.64" y1="96.15" x2="70.66" y2="90.2"/>
</svg>